<svg id="Capa_3" data-name="Capa 3" xmlns="http://www.w3.org/2000/svg" viewBox="0 0 718.67 383.3"><defs><style>.cls-1{fill:#fff;}</style></defs><title>Sin-título2</title><path class="cls-1" d="M474.26,302.9c-4.3-6.3-9.5-11.1-14.5-13.5-6.9-3.3-15.9-3.2-23.9.1-3.3,1.3-6.8,3.3-7.9,4.4-2,1.9-2,2,.2,5.4,3,4.8,10.4,11.5,15.4,13.8,8.3,3.7,23.4,1.5,30.4-4.5l2.7-2.3Zm-3.6,4.6c-3.2,2.4-11.5,4.8-17,4.8-7.1,0-13.2-3.2-19.5-10.1l-5.1-5.6,2.2-1.6a54.14,54.14,0,0,1,6.4-3.2c5.8-2.4,16.6-2.3,21.5.1,4.1,2.1,10.1,7.9,12.2,11.7C472.46,305.7,472.36,306.2,470.66,307.5Z" transform="translate(-147.26 -188.1)"/><path class="cls-1" d="M157.46,567.5l-2.6-2.4c-1.4-1.4-2.6-3-2.6-3.8s-.4-1.3-.9-1.3c-1.2,0-2.3-2.9-1.5-4.1.9-1.5,1.4-1,.7.8-.5,1.2-.3,1.4.7.8.8-.5,1.1-.4.6.3a1.2,1.2,0,0,0,.3,1.6,20.65,20.65,0,0,1,3.1,4.3Z" transform="translate(-147.26 -188.1)"/><path class="cls-1" d="M455.16,293.5c-3.4-1.8-4.7-1.8-8,0a8.38,8.38,0,0,0,4.2,15.8C459.56,309.3,462.46,297.2,455.16,293.5Zm-5.7,9.8c-2.3-1.4-2.5-2.9-.7-4.7,2-1.9,2.7-2,4.3-.4C456.06,301.2,453,305.5,449.46,303.3Z" transform="translate(-147.26 -188.1)"/><path class="cls-1" d="M447.86,274.8c-.4.3-1,.1-1.5-.4s-.4-3.1.5-6.4c1.6-6,7.4-31.6,7.4-32.6,0-.4-.7-.1-1.5.6-1.2,1-1.9,1-2.7.2s-.1-1.6,2.3-3.1c3.6-2.2,5.5-2.2,5.3,0C457.26,236.3,448.36,274.2,447.86,274.8Z" transform="translate(-147.26 -188.1)"/><path class="cls-1" d="M487.26,502.1c-4.5,16.1-32.8,24.5-70.7,21-35.5-3.3-50.3-12.6-50.3-31.7,0-7.6,1.9-12.2,7.3-18.1,11.8-12.8,37.5-17.9,70.2-13.8,15.7,1.9,23.9,2,25.5,0,.8-1,3.1-1.5,7-1.5,5.1,0,5.8.3,6.8,2.5,2.9,6.3,5.7,22.7,4,23.2a15.24,15.24,0,0,1-3.7.3c-2.2,0-3.1-.6-4.1-3-3.2-7.7-15-13.9-28-14.7-13.2-.9-20.7,2.6-25.3,11.7-2.6,5-2.8,6.3-2.5,14.2.3,7.7.6,9.1,3.3,13a27.8,27.8,0,0,0,8.5,7.3c5.1,2.8,6.2,3,16,3,10.1,0,10.8-.2,16.9-3.5,6.8-3.6,11.5-8.9,12.6-14.1.6-2.5,1.1-2.9,4.1-2.9C488.66,495,489,495.9,487.26,502.1Z" transform="translate(-147.26 -188.1)"/><path class="cls-1" d="M837.46,473c-23.8-5-58.8-2.1-71.5,6-15.4,9.7-14.8,27.6,1.1,36.3,9,4.9,18.9,6.9,37.2,7.4,37.5,1.2,58.8-6.7,61.4-22.7C867.76,487,857.56,477.3,837.46,473Zm-20.1,39.3c-6.4,13.2-15.9,4.5-16.1-14.6,0-9.9,1.5-16,5-19.7s5.4-3.8,8.5-.4c3.7,4,4.9,9,4.9,19.9C819.66,506,819.26,508.3,817.36,512.3Z" transform="translate(-147.26 -188.1)"/><path class="cls-1" d="M729.06,474.5c-12.1-5.5-32.4-5.6-44.5-.1l-5.3,2.5V452l-6.2.1c-5.8.2-56,3.5-56.5,3.8-.2,0-.3,1-.3,2,0,1.6.9,2.1,4.8,2.6,10.1,1.3,13.5,4.4,15.8,14.3,1.6,6.5,1.8,33.1.4,40.2-1.3,6.9-.5,7.2,12.2,5.8,9.5-1.1,13.3-.9,33,1,18.7,1.9,23.7,2.1,30.6,1.2,20.8-2.7,30.6-11.2,30.6-26.5C743.66,485.4,739.66,479.4,729.06,474.5Zm-34.4,40.6c-1.8,1.9-8.3,2.6-13.2,1.3-2.2-.6-2.2-.7-2-16.7l.3-16.1,3.4-2.3c5-3.4,9.7-3.1,12,.8C699,488.4,698.66,510.7,694.66,515.1Z" transform="translate(-147.26 -188.1)"/><path class="cls-1" d="M624.06,520.7c-.2.4-11.6.9-25.5,1.1l-25.2.4-3.3-3.2-3.2-3.3-4.6,1.8a75,75,0,0,1-31.5,5.3c-12.1-.3-15.9-1.7-19.9-7.1-1.9-2.6-2.1-4.2-2.1-16.9v-14l-3.3-2.9a9.29,9.29,0,0,0-7.2-2.9c-3.6,0-4-.3-4-2.4,0-2.3.3-2.4,9.3-3,11.9-.9,32.4-2.5,41-3.2l6.7-.5v16.6c0,22.7,1.2,25.2,11.6,24.3l3.9-.3.3-8.3c.5-14.5-1.9-22.1-7.5-24.3a3.41,3.41,0,0,1-2.3-2.7c0-1.7,1.5-2,16.3-3.2,8.9-.7,19.8-1.6,24.2-2a85.61,85.61,0,0,1,9-.5c.6.1,1.2,8,1.5,20.1.3,10.9.9,20.6,1.3,21.5,1.1,2.3,5.8,4.7,10.5,5.5C623.86,517.2,624.86,518.3,624.06,520.7Z" transform="translate(-147.26 -188.1)"/><path class="cls-1" d="M482.16,238.8c-7.3-8-15.4-1.4-19.4,15.8-1.9,8.1-2.1,19.4-.5,22.4,1.4,2.6,5.4,4.2,8.7,3.4,6-1.6,12-15.5,13-30.4C484.46,242,484.36,241.3,482.16,238.8Zm-4.9,29.5c-3.5,9.3-9.7,12.5-12.8,6.7-3.3-6.4,2.9-32.6,8.5-35.9,3.9-2.3,7.4-.3,8.6,4.8C482.36,247.1,479.76,261.5,477.26,268.3Z" transform="translate(-147.26 -188.1)"/><path class="cls-1" d="M626.46,251.2l-4.1-3.2c-3.7-3-8.3-4.4-47.8-14.7-24.1-6.2-53.2-13.8-64.8-16.8-82.1-21.5-81-21.3-89-17.6-4.5,2-9.8,6.9-11.9,11-.8,1.4-4.8,16.1-9.1,32.6s-9.4,36.7-11.5,45-12.3,47.4-22.5,87-21.4,82.3-24.7,95c-6.8,26-7.5,32.4-4,39.1a34.12,34.12,0,0,0,5.6,7.5c2,1.8,3.4,3.5,3.2,3.7s-2.2-.6-4.3-1.7a28.19,28.19,0,0,1-11.8-12.8c-3.2-7.6-5.2,1.2,37-162.3,4.8-18.4,11.3-43.9,14.6-56.5s8.4-32.4,11.4-44,5.1-21.3,4.7-21.6c-1.5-1.3-21.5-5.9-25.6-5.9a23.73,23.73,0,0,0-20.1,10.9c-1.6,2.3-4.3,10.8-7.5,23.1-2.7,10.7-6.8,26.5-9,35s-9.1,35.3-15.4,59.5c-28.8,111.3-34.2,132.2-38.7,149.8-2.7,10.3-4.9,20.9-4.9,23.5,0,6.1,3.6,13.8,8.4,18,4.4,3.8,2.9,4.2-3.1.6a24.66,24.66,0,0,1-11.4-15.9c-1.4-6.3-2.1-2.8,11.6-56,5.2-19.8,12.4-47.7,16-62s9-34.6,11.7-45,8.2-32.1,12.3-48,9.7-37.6,12.5-48,5-19.7,5-20.6c0-1.9-22.4-7.9-29.6-7.9-5.3,0-12.5,2.8-16.2,6.3-4.1,3.8-6,9-12.6,34.4-5.8,22-32.6,126-47.3,182.8-2.9,11.5-8.6,33.1-12.4,48-6,22.6-7,27.9-6.6,32.3a26.47,26.47,0,0,0,8.9,16.6c1.8,1.4,2.9,2.6,2.5,2.6-2.1,0-8.7-4.3-11.5-7.5-6.8-7.7-7.7-14.8-3.8-29.8,3.1-11.6,9-34.7,20.2-78.2,4.7-18.7,12-46.8,16-62.5s9.3-35.7,11.5-44.5,7.7-29.7,12.1-46.4,7.8-30.4,7.6-30.5-5.8-1.7-12.4-3.4c-15.4-4.1-21.4-4.1-28.5-.4-6.8,3.5-10.5,8.7-13,18.3-3.4,12.7-9.5,36.5-15.9,61.4-3.4,13.2-7.9,30.7-10,39s-9.1,35-15.4,59.5c-13.5,52-15.5,59.4-24.1,92-3.6,13.5-6.5,26.5-6.5,29,0,5.4,3,12.3,7.3,16.9l3.2,3.5-3-1.8a29.49,29.49,0,0,1-10.6-10.8c-3.3-6.4-2.5-13.6,4-39.2,3.3-12.7,9.7-37.5,14.2-55.1,20.3-79.5,20-78.1,39-151.5,4.3-16.8,9.3-35.9,11-42.5,3.9-15.2,5.3-18.5,9.8-22.9a21.73,21.73,0,0,1,16.1-6.6c4,0,24.6,4.4,35.1,7.6,1.3.3,1.9-.7,2.8-4.3,2.7-10.7,10-18.2,19.9-20.3,4.4-1,6.5-.7,21.3,3,9,2.2,17.1,4.3,18,4.6,1.3.3,1.8-.5,2.4-3.3,1.9-10.5,8.5-18.1,18.2-20.9l5.8-1.7,16.5,4.1c9,2.3,16.6,4,16.8,3.7a23.68,23.68,0,0,0,1.3-4.7c2.6-11.4,12.8-20.3,23.8-20.7,1.3-.1,9.1,1.7,17.5,3.8,27.5,7.2,45.8,11.9,79.1,20.6,98.2,25.4,92.7,23.8,98.3,28.9a22.75,22.75,0,0,1,4.4,6Z" transform="translate(-147.26 -188.1)"/></svg>